<svg id="图层_1" data-name="图层 1" xmlns="http://www.w3.org/2000/svg" viewBox="0 0 595.28 595.28"><defs><style>.cls-1{fill:#fff;}</style></defs><title>isux“设”黑底</title><rect class="cls-1" width="595.28" height="595.28"/><polygon points="235.67 86.8 185.34 86.8 168.9 244.05 218.83 244.05 235.67 86.8"/><path d="M353.82,174c6.63-49.92,29.87-55.69,46.78-55.69,20,0,32.24,10.84,33.51,29.75a118,118,0,0,1-.94,24.4l-9.06,71.19h49.18l8.56-66.7a174.88,174.88,0,0,0,1.13-29.7c-1.4-21.59-9.11-38.58-22.93-50.51s-33.18-18.07-56.33-18.07h-1c-58.27,0-89.43,29.9-98.06,94.09l-8.62,70.89h49.18Z" transform="translate(0)"/><polygon points="401.18 380.95 446.86 328.17 485.05 284.27 424.38 284.27 376.08 340.01 342.73 284.22 288.7 284.22 315.19 328.3 344.28 376.91 343.85 377.43 254.09 482.39 314.14 482.39 368.98 418.34 406.93 482.34 460.39 482.34 400.74 381.46 401.18 380.95"/><path d="M207,280.66c-11.64-3.83-24.92-5.77-39.5-5.77-3.88,0-7.77.18-12.25.55a116.29,116.29,0,0,0-37.6,9.47l7.22,34.17a113.89,113.89,0,0,1,43.47-8.46c9.85,0,17.29,2.14,22.13,6.37a17.19,17.19,0,0,1,5.93,12.93v.16a1.93,1.93,0,0,1,0,.23c-.79,11.29-11.6,19.51-39.92,30.38C121,373.8,97,388.45,94.8,417.33A56.3,56.3,0,0,0,110,460.23c11.51,12.41,34.62,27.21,79.32,27.21,30,0,50.47-12.89,53-14.59l-9.28-34a137.47,137.47,0,0,1-53,11.31c-11.39,0-20.94-3.28-26.2-9a17,17,0,0,1-4.52-13.27c3.19-18,22.24-24.68,44.3-32.4,3.36-1.18,6.85-2.4,10.32-3.68,27.72-9.24,43.23-26.78,46.12-52.18l0-.35A64.26,64.26,0,0,0,250,330C248.11,306.67,232.85,289.16,207,280.66Z" transform="translate(0)"/></svg>